<svg version="1.1" xmlns="http://www.w3.org/2000/svg" xmlns:xlink="http://www.w3.org/1999/xlink" width="78.97247" height="40.23126" viewBox="0,0,78.97247,40.23126"><g transform="translate(-200.51377,-160.30707)"><g data-paper-data="{&quot;isPaintingLayer&quot;:true}" fill-rule="nonzero" stroke="none" stroke-linecap="butt" stroke-linejoin="miter" stroke-miterlimit="10" stroke-dasharray="" stroke-dashoffset="0" style="mix-blend-mode: normal"><g><path d="M222.03768,198.51138c-2.84687,-2.69128 -2.10165,-7.56325 -2.10165,-7.56325v-20.84134c0,0 -0.40846,-4.61356 2.27679,-7.32343c2.68524,-2.70988 7.23617,-2.27678 7.23617,-2.27678l20.66675,-0.11596c0,0 5.00816,-0.71575 7.82511,2.04246c2.81696,2.75822 2.10165,7.84886 2.10165,7.84886v20.14079c0,0 0.80023,4.9381 -1.92651,7.73838c-2.72674,2.80028 -7.82564,2.27679 -7.82564,2.27679h-20.31594c0,0 -5.08985,0.76477 -7.9367,-1.92651z" fill="#00a7ff" stroke-width="NaN"/><path d="M222.03768,193.54482c-2.84687,-2.69128 -2.10165,-7.56325 -2.10165,-7.56325v-15.55776c0,0 -0.40846,-4.61356 2.27679,-7.32343c2.68524,-2.70988 7.23617,-2.27678 7.23617,-2.27678l20.66675,-0.11596c0,0 5.00816,-0.71575 7.82511,2.04246c2.81696,2.75822 2.10165,7.84886 2.10165,7.84886v14.85722c0,0 0.80023,4.9381 -1.92651,7.73838c-2.72674,2.80028 -7.82564,2.27679 -7.82564,2.27679h-20.31594c0,0 -5.08985,0.76477 -7.9367,-1.92651z" fill="#00c1ff" stroke-width="NaN"/></g><path d="M230.60609,175.78864c0,-1.38071 1.11929,-2.5 2.5,-2.5c1.38071,0 2.5,1.11929 2.5,2.5c0,1.38071 -1.11929,2.5 -2.5,2.5c-1.38071,0 -2.5,-1.11929 -2.5,-2.5z" fill="#ffffff" stroke-width="0.5"/><path d="M245.50656,175.78864c0,-1.38071 1.11929,-2.5 2.5,-2.5c1.38071,0 2.5,1.11929 2.5,2.5c0,1.38071 -1.11929,2.5 -2.5,2.5c-1.38071,0 -2.5,-1.11929 -2.5,-2.5z" fill="#ffffff" stroke-width="0.5"/><g stroke-width="0"><path d="M200.51377,182.23507c0,-4.52612 3.66914,-8.19526 8.19525,-8.19526c4.52611,0 8.19526,3.66914 8.19526,8.19526c0,4.52612 -3.66914,8.19526 -8.19526,8.19526c-4.52611,0 -8.19525,-3.66914 -8.19525,-8.19526z" fill="#00a7ff"/><path d="M200.66276,180c0,-4.52612 3.66914,-8.19526 8.19526,-8.19526c4.52612,0 8.19526,3.66914 8.19526,8.19526c0,4.52612 -3.66914,8.19526 -8.19526,8.19526c-4.52612,0 -8.19526,-3.66914 -8.19526,-8.19526z" fill="#00c1ff"/></g><path d="M263.09573,183.35261c0,-4.52612 3.66914,-8.19526 8.19525,-8.19526c4.52611,0 8.19526,3.66914 8.19526,8.19526c0,4.52612 -3.66914,8.19526 -8.19526,8.19526c-4.52611,0 -8.19525,-3.66914 -8.19525,-8.19526z" fill="#00a7ff" stroke-width="0"/><path d="M263.09573,181.11754c0,-4.52612 3.66914,-8.19526 8.19525,-8.19526c4.52611,0 8.19526,3.66914 8.19526,8.19526c0,4.52612 -3.66914,8.19526 -8.19526,8.19526c-4.52611,0 -8.19525,-3.66914 -8.19525,-8.19526z" fill="#00c1ff" stroke-width="0"/><path d="M226.34118,184.18048c1.78569,-1.00447 4.09015,-0.26841 6.13849,-0.3125c4.66344,-0.10037 9.30377,0.04739 13.944,0.149c1.60711,0.03519 7.06124,-1.14368 7.06124,2.5c0,1.68473 -1.18349,2.43164 -2.5,2.5c-6.07702,0.31556 -12.04653,-0.62662 -18.15301,-0.19265c-2.16672,0.15398 -5.43186,1.58417 -6.50956,-0.30182c-0.73685,-0.43488 -1.23117,-1.23698 -1.23117,-2.15454c0,-0.81357 0.38862,-1.53638 0.99036,-1.99291c0.07697,-0.07451 0.16278,-0.14011 0.25964,-0.19459z" fill="#ffffff" stroke-width="0.5"/></g></g></svg>